<?xml version="1.0" encoding="UTF-8" standalone="no"?><!DOCTYPE svg PUBLIC "-//W3C//DTD SVG 1.1//EN" "http://www.w3.org/Graphics/SVG/1.1/DTD/svg11.dtd"><svg width="100%" height="100%" viewBox="0 0 2500 6400" version="1.1" xmlns="http://www.w3.org/2000/svg" xmlns:xlink="http://www.w3.org/1999/xlink" xml:space="preserve" xmlns:serif="http://www.serif.com/" style="fill-rule:evenodd;clip-rule:evenodd;stroke-linecap:round;stroke-linejoin:round;stroke-miterlimit:1.5;"><g><g><g><path d="M1250,401.333c0,-19.133 -15.534,-34.666 -34.667,-34.666l-980.666,-0c-19.133,-0 -34.667,15.533 -34.667,34.666l0,147.334c0,19.133 15.534,34.666 34.667,34.666l980.666,0c19.133,0 34.667,-15.533 34.667,-34.666l0,-147.334Z" style="fill:#e4e4e4;"/><clipPath id="_clip1"><path d="M1250,401.333c0,-19.133 -15.534,-34.666 -34.667,-34.666l-980.666,-0c-19.133,-0 -34.667,15.533 -34.667,34.666l0,147.334c0,19.133 15.534,34.666 34.667,34.666l980.666,0c19.133,0 34.667,-15.533 34.667,-34.666l0,-147.334Z"/></clipPath><g clip-path="url(#_clip1)"><g transform="matrix(4.16667,0,0,4.16667,41.6667,237.222)"><text x="71.083px" y="54.551px" style="font-family:'Consolas', monospace;font-size:13px;">OnStarted(</text><text x="142.558px" y="54.551px" style="font-family:'Consolas', monospace;font-size:13px;fill:#0095ff;">OperationHandle</text><text x="249.77px" y="54.551px" style="font-family:'Consolas', monospace;font-size:13px;">)</text><text x="103.521px" y="68.551px" style="font-family:'Consolas', monospace;font-size:11px;fill:#565656;">Wait for the handle.</text></g></g><path d="M1250,401.333c0,-19.133 -15.534,-34.666 -34.667,-34.666l-980.666,-0c-19.133,-0 -34.667,15.533 -34.667,34.666l0,147.334c0,19.133 15.534,34.666 34.667,34.666l980.666,0c19.133,0 34.667,-15.533 34.667,-34.666l0,-147.334Z" style="fill:none;stroke:#000;stroke-width:4.17px;"/><path d="M1250,5384.67c0,-19.133 -15.534,-34.667 -34.667,-34.667l-980.666,-0c-19.133,-0 -34.667,15.534 -34.667,34.667l0,147.333c0,19.133 15.534,34.667 34.667,34.667l980.666,-0c19.133,-0 34.667,-15.534 34.667,-34.667l0,-147.333Z" style="fill:#e4e4e4;"/><clipPath id="_clip2"><path d="M1250,5384.67c0,-19.133 -15.534,-34.667 -34.667,-34.667l-980.666,-0c-19.133,-0 -34.667,15.534 -34.667,34.667l0,147.333c0,19.133 15.534,34.667 34.667,34.667l980.666,-0c19.133,-0 34.667,-15.534 34.667,-34.667l0,-147.333Z"/></clipPath><g clip-path="url(#_clip2)"><g transform="matrix(4.16667,0,0,4.16667,41.6667,5220.56)"><text x="96.099px" y="54.551px" style="font-family:'Consolas', monospace;font-size:13px;">OnLoadingFinished()</text><text x="52.115px" y="68.551px" style="font-family:'Consolas', monospace;font-size:11px;fill:#565656;">Notify</text><text x="94.45px" y="68.551px" style="font-family:'Consolas', monospace;font-size:11px;fill:#00a9ff;">ICoreLoadingCallbacksHandler</text><text x="263.79px" y="68.551px" style="font-family:'Consolas', monospace;font-size:11px;fill:#565656;">s.</text></g></g><path d="M1250,5384.67c0,-19.133 -15.534,-34.667 -34.667,-34.667l-980.666,-0c-19.133,-0 -34.667,15.534 -34.667,34.667l0,147.333c0,19.133 15.534,34.667 34.667,34.667l980.666,-0c19.133,-0 34.667,-15.534 34.667,-34.667l0,-147.333Z" style="fill:none;stroke:#000;stroke-width:4.17px;"/><path d="M1250,6018c0,-19.133 -15.534,-34.667 -34.667,-34.667l-980.666,0c-19.133,0 -34.667,15.534 -34.667,34.667l0,147.333c0,19.133 15.534,34.667 34.667,34.667l980.666,0c19.133,0 34.667,-15.534 34.667,-34.667l0,-147.333Z" style="fill:#e4e4e4;"/><clipPath id="_clip3"><path d="M1250,6018c0,-19.133 -15.534,-34.667 -34.667,-34.667l-980.666,0c-19.133,0 -34.667,15.534 -34.667,34.667l0,147.333c0,19.133 15.534,34.667 34.667,34.667l980.666,0c19.133,0 34.667,-15.534 34.667,-34.667l0,-147.333Z"/></clipPath><g clip-path="url(#_clip3)"><g transform="matrix(4.16667,0,0,4.16667,41.6667,5853.89)"><text x="85.378px" y="54.551px" style="font-family:'Consolas', monospace;font-size:13px;">OnSceneChangeStarted()</text><text x="52.115px" y="68.551px" style="font-family:'Consolas', monospace;font-size:11px;fill:#565656;">Notify</text><text x="94.45px" y="68.551px" style="font-family:'Consolas', monospace;font-size:11px;fill:#00a9ff;">ICoreLoadingCallbacksHandler</text><text x="263.79px" y="68.551px" style="font-family:'Consolas', monospace;font-size:11px;fill:#565656;">s.</text></g></g><path d="M1250,6018c0,-19.133 -15.534,-34.667 -34.667,-34.667l-980.666,0c-19.133,0 -34.667,15.534 -34.667,34.667l0,147.333c0,19.133 15.534,34.667 34.667,34.667l980.666,0c19.133,0 34.667,-15.534 34.667,-34.667l0,-147.333Z" style="fill:none;stroke:#000;stroke-width:4.17px;"/><path d="M2400,1368c0,-19.133 -15.534,-34.667 -34.667,-34.667l-980.666,0c-19.133,0 -34.667,15.534 -34.667,34.667l0,147.333c0,19.133 15.534,34.667 34.667,34.667l980.666,0c19.133,0 34.667,-15.534 34.667,-34.667l0,-147.333Z" style="fill:#e4e4e4;"/><clipPath id="_clip4"><path d="M2400,1368c0,-19.133 -15.534,-34.667 -34.667,-34.667l-980.666,0c-19.133,0 -34.667,15.534 -34.667,34.667l0,147.333c0,19.133 15.534,34.667 34.667,34.667l980.666,0c19.133,0 34.667,-15.534 34.667,-34.667l0,-147.333Z"/></clipPath><g clip-path="url(#_clip4)"><g transform="matrix(4.16667,0,0,4.16667,1191.67,1203.89)"><text x="74.657px" y="54.551px" style="font-family:'Consolas', monospace;font-size:13px;">InstallAdditionalBindings</text><text x="92.525px" y="68.551px" style="font-family:'Consolas', monospace;font-size:13px;">(</text><text x="99.673px" y="68.551px" style="font-family:'Consolas', monospace;font-size:13px;fill:#0095ff;">IBindOnlyContainer</text><text x="228.327px" y="68.551px" style="font-family:'Consolas', monospace;font-size:13px;">)</text></g></g><path d="M2400,1368c0,-19.133 -15.534,-34.667 -34.667,-34.667l-980.666,0c-19.133,0 -34.667,15.534 -34.667,34.667l0,147.333c0,19.133 15.534,34.667 34.667,34.667l980.666,0c19.133,0 34.667,-15.534 34.667,-34.667l0,-147.333Z" style="fill:none;stroke:#000;stroke-width:4.17px;"/><path d="M1250,2734.67c0,-19.133 -15.534,-34.667 -34.667,-34.667l-980.666,0c-19.133,0 -34.667,15.534 -34.667,34.667l0,147.333c0,19.133 15.534,34.667 34.667,34.667l980.666,-0c19.133,-0 34.667,-15.534 34.667,-34.667l0,-147.333Z" style="fill:#e4e4e4;"/><clipPath id="_clip5"><path d="M1250,2734.67c0,-19.133 -15.534,-34.667 -34.667,-34.667l-980.666,0c-19.133,0 -34.667,15.534 -34.667,34.667l0,147.333c0,19.133 15.534,34.667 34.667,34.667l980.666,-0c19.133,-0 34.667,-15.534 34.667,-34.667l0,-147.333Z"/></clipPath><g clip-path="url(#_clip5)"><g transform="matrix(4.16667,0,0,4.16667,41.6667,2570.56)"><text x="74.657px" y="54.551px" style="font-family:'Consolas', monospace;font-size:13px;">InstallAdditionalBindings</text><text x="92.525px" y="68.551px" style="font-family:'Consolas', monospace;font-size:13px;">(</text><text x="99.673px" y="68.551px" style="font-family:'Consolas', monospace;font-size:13px;fill:#0095ff;">IBindOnlyContainer</text><text x="228.327px" y="68.551px" style="font-family:'Consolas', monospace;font-size:13px;">)</text></g></g><path d="M1250,2734.67c0,-19.133 -15.534,-34.667 -34.667,-34.667l-980.666,0c-19.133,0 -34.667,15.534 -34.667,34.667l0,147.333c0,19.133 15.534,34.667 34.667,34.667l980.666,-0c19.133,-0 34.667,-15.534 34.667,-34.667l0,-147.333Z" style="fill:none;stroke:#000;stroke-width:4.17px;"/><path d="M1250,3368c0,-19.133 -15.534,-34.667 -34.667,-34.667l-980.666,0c-19.133,0 -34.667,15.534 -34.667,34.667l0,147.333c0,19.133 15.534,34.667 34.667,34.667l980.666,0c19.133,0 34.667,-15.534 34.667,-34.667l0,-147.333Z" style="fill:#e4e4e4;"/><clipPath id="_clip6"><path d="M1250,3368c0,-19.133 -15.534,-34.667 -34.667,-34.667l-980.666,0c-19.133,0 -34.667,15.534 -34.667,34.667l0,147.333c0,19.133 15.534,34.667 34.667,34.667l980.666,0c19.133,0 34.667,-15.534 34.667,-34.667l0,-147.333Z"/></clipPath><g clip-path="url(#_clip6)"><text x="442.08px" y="3460.35px" style="font-family:'Consolas', monospace;font-size:54.167px;">OnBindingFinished()</text></g><path d="M1250,3368c0,-19.133 -15.534,-34.667 -34.667,-34.667l-980.666,0c-19.133,0 -34.667,15.534 -34.667,34.667l0,147.333c0,19.133 15.534,34.667 34.667,34.667l980.666,0c19.133,0 34.667,-15.534 34.667,-34.667l0,-147.333Z" style="fill:none;stroke:#000;stroke-width:4.17px;"/><path d="M2400,4018c0,-19.133 -15.534,-34.667 -34.667,-34.667l-980.666,0c-19.133,0 -34.667,15.534 -34.667,34.667l0,147.333c0,19.133 15.534,34.667 34.667,34.667l980.666,0c19.133,0 34.667,-15.534 34.667,-34.667l0,-147.333Z" style="fill:#e4e4e4;"/><clipPath id="_clip7"><path d="M2400,4018c0,-19.133 -15.534,-34.667 -34.667,-34.667l-980.666,0c-19.133,0 -34.667,15.534 -34.667,34.667l0,147.333c0,19.133 15.534,34.667 34.667,34.667l980.666,0c19.133,0 34.667,-15.534 34.667,-34.667l0,-147.333Z"/></clipPath><g clip-path="url(#_clip7)"><g transform="matrix(4.16667,0,0,4.16667,1191.67,3933.33)"><text x="77.406px" y="46.638px" style="font-family:'Consolas', monospace;font-size:9px;fill:#565656;">For each</text><text x="121.94px" y="46.638px" style="font-family:'Consolas', monospace;font-size:9px;fill:#00a9ff;">ICoreLoadable</text><text x="191.215px" y="46.638px" style="font-family:'Consolas', monospace;font-size:9px;fill:#565656;">sequentially</text><text x="50.19px" y="54.638px" style="font-family:'Consolas', monospace;font-size:9px;">Load(</text><text x="74.932px" y="54.638px" style="font-family:'Consolas', monospace;font-size:9px;fill:#00a9ff;">OperationHandle</text><text x="149.155px" y="54.638px" style="font-family:'Consolas', monospace;font-size:9px;">)</text><text x="159.052px" y="54.638px" style="font-family:'Consolas', monospace;font-size:9px;fill:#565656;">and wait for the handle.</text></g><text x="1666.53px" y="4070.63px" style="font-family:'Consolas', monospace;font-size:54.167px;">GetLoadables()</text></g><path d="M2400,4018c0,-19.133 -15.534,-34.667 -34.667,-34.667l-980.666,0c-19.133,0 -34.667,15.534 -34.667,34.667l0,147.333c0,19.133 15.534,34.667 34.667,34.667l980.666,0c19.133,0 34.667,-15.534 34.667,-34.667l0,-147.333Z" style="fill:none;stroke:#000;stroke-width:4.17px;"/><path d="M1250,4434.67c0,-19.133 -15.534,-34.667 -34.667,-34.667l-980.666,0c-19.133,0 -34.667,15.534 -34.667,34.667l0,147.333c0,19.133 15.534,34.667 34.667,34.667l980.666,-0c19.133,-0 34.667,-15.534 34.667,-34.667l0,-147.333Z" style="fill:#e4e4e4;"/><clipPath id="_clip8"><path d="M1250,4434.67c0,-19.133 -15.534,-34.667 -34.667,-34.667l-980.666,0c-19.133,0 -34.667,15.534 -34.667,34.667l0,147.333c0,19.133 15.534,34.667 34.667,34.667l980.666,-0c19.133,-0 34.667,-15.534 34.667,-34.667l0,-147.333Z"/></clipPath><g clip-path="url(#_clip8)"><g transform="matrix(4.16667,0,0,4.16667,41.6667,4350)"><text x="77.406px" y="46.638px" style="font-family:'Consolas', monospace;font-size:9px;fill:#565656;">For each</text><text x="121.94px" y="46.638px" style="font-family:'Consolas', monospace;font-size:9px;fill:#00a9ff;">ICoreLoadable</text><text x="191.215px" y="46.638px" style="font-family:'Consolas', monospace;font-size:9px;fill:#565656;">sequentially</text><text x="50.19px" y="54.638px" style="font-family:'Consolas', monospace;font-size:9px;">Load(</text><text x="74.932px" y="54.638px" style="font-family:'Consolas', monospace;font-size:9px;fill:#00a9ff;">OperationHandle</text><text x="149.155px" y="54.638px" style="font-family:'Consolas', monospace;font-size:9px;">)</text><text x="159.052px" y="54.638px" style="font-family:'Consolas', monospace;font-size:9px;fill:#565656;">and wait for the handle.</text></g><text x="516.532px" y="4487.3px" style="font-family:'Consolas', monospace;font-size:54.167px;">GetLoadables()</text></g><path d="M1250,4434.67c0,-19.133 -15.534,-34.667 -34.667,-34.667l-980.666,0c-19.133,0 -34.667,15.534 -34.667,34.667l0,147.333c0,19.133 15.534,34.667 34.667,34.667l980.666,-0c19.133,-0 34.667,-15.534 34.667,-34.667l0,-147.333Z" style="fill:none;stroke:#000;stroke-width:4.17px;"/><path d="M2400,808.333c0,-59.79 -48.543,-108.333 -108.333,-108.333l-833.334,0c-59.79,0 -108.333,48.543 -108.333,108.333c0,59.791 48.543,108.334 108.333,108.334l833.334,-0c59.79,-0 108.333,-48.543 108.333,-108.334Z" style="fill:#fff;"/><clipPath id="_clip9"><path d="M2400,808.333c0,-59.79 -48.543,-108.333 -108.333,-108.333l-833.334,0c-59.79,0 -108.333,48.543 -108.333,108.333c0,59.791 48.543,108.334 108.333,108.334l833.334,-0c59.79,-0 108.333,-48.543 108.333,-108.334Z"/></clipPath><g clip-path="url(#_clip9)"><g transform="matrix(4.16667,0,0,4.16667,1191.67,570.556)"><text x="74.657px" y="54.551px" style="font-family:'Consolas', monospace;font-size:13px;">Create a project context.</text><text x="106.545px" y="68.551px" style="font-family:'Consolas', monospace;font-size:11px;fill:#565656;">(DontDestroyOnLoad)</text></g></g><path d="M2400,808.333c0,-59.79 -48.543,-108.333 -108.333,-108.333l-833.334,0c-59.79,0 -108.333,48.543 -108.333,108.333c0,59.791 48.543,108.334 108.333,108.334l833.334,-0c59.79,-0 108.333,-48.543 108.333,-108.334Z" style="fill:none;stroke:#000;stroke-width:4.17px;"/><path d="M1250,2175c0,-59.791 -48.543,-108.333 -108.333,-108.333l-833.334,-0c-59.79,-0 -108.333,48.542 -108.333,108.333c0,59.791 48.543,108.333 108.333,108.333l833.334,0c59.79,0 108.333,-48.542 108.333,-108.333Z" style="fill:#fff;"/><clipPath id="_clip10"><path d="M1250,2175c0,-59.791 -48.543,-108.333 -108.333,-108.333l-833.334,-0c-59.79,-0 -108.333,48.542 -108.333,108.333c0,59.791 48.543,108.333 108.333,108.333l833.334,0c59.79,0 108.333,-48.542 108.333,-108.333Z"/></clipPath><g clip-path="url(#_clip10)"><g transform="matrix(4.16667,0,0,4.16667,41.6667,1937.22)"><text x="103.247px" y="47.551px" style="font-family:'Consolas', monospace;font-size:13px;">Copy the contents</text><text x="53.214px" y="61.551px" style="font-family:'Consolas', monospace;font-size:13px;">of</text><text x="74.657px" y="61.551px" style="font-family:'Consolas', monospace;font-size:13px;fill:#00a9ff;">CoreProjectContext.Container</text><text x="63.936px" y="75.551px" style="font-family:'Consolas', monospace;font-size:13px;">to</text><text x="85.378px" y="75.551px" style="font-family:'Consolas', monospace;font-size:13px;fill:#00a9ff;">CoreController.Container</text><text x="256.917px" y="75.551px" style="font-family:'Consolas', monospace;font-size:13px;">.</text></g></g><path d="M1250,2175c0,-59.791 -48.543,-108.333 -108.333,-108.333l-833.334,-0c-59.79,-0 -108.333,48.542 -108.333,108.333c0,59.791 48.543,108.333 108.333,108.333l833.334,0c59.79,0 108.333,-48.542 108.333,-108.333Z" style="fill:none;stroke:#000;stroke-width:4.17px;"/><path d="M2400,1125c0,-59.791 -48.543,-108.333 -108.333,-108.333l-833.334,-0c-59.79,-0 -108.333,48.542 -108.333,108.333c0,59.791 48.543,108.333 108.333,108.333l833.334,0c59.79,0 108.333,-48.542 108.333,-108.333Z" style="fill:#fff;"/><clipPath id="_clip11"><path d="M2400,1125c0,-59.791 -48.543,-108.333 -108.333,-108.333l-833.334,-0c-59.79,-0 -108.333,48.542 -108.333,108.333c0,59.791 48.543,108.333 108.333,108.333l833.334,0c59.79,0 108.333,-48.542 108.333,-108.333Z"/></clipPath><g clip-path="url(#_clip11)"><g transform="matrix(4.16667,0,0,4.16667,1191.67,887.222)"><text x="88.952px" y="54.551px" style="font-family:'Consolas', monospace;font-size:13px;">Install bindings from</text><text x="71.083px" y="68.551px" style="font-family:'Consolas', monospace;font-size:13px;">the `MonoInstallers` list.</text></g></g><path d="M2400,1125c0,-59.791 -48.543,-108.333 -108.333,-108.333l-833.334,-0c-59.79,-0 -108.333,48.542 -108.333,108.333c0,59.791 48.543,108.333 108.333,108.333l833.334,0c59.79,0 108.333,-48.542 108.333,-108.333Z" style="fill:none;stroke:#000;stroke-width:4.17px;"/><path d="M1250,2491.67c0,-59.791 -48.543,-108.334 -108.333,-108.334l-833.334,0c-59.79,0 -108.333,48.543 -108.333,108.334c0,59.79 48.543,108.333 108.333,108.333l833.334,0c59.79,0 108.333,-48.543 108.333,-108.333Z" style="fill:#fff;"/><clipPath id="_clip12"><path d="M1250,2491.67c0,-59.791 -48.543,-108.334 -108.333,-108.334l-833.334,0c-59.79,0 -108.333,48.543 -108.333,108.334c0,59.79 48.543,108.333 108.333,108.333l833.334,0c59.79,0 108.333,-48.543 108.333,-108.333Z"/></clipPath><g clip-path="url(#_clip12)"><g transform="matrix(4.16667,0,0,4.16667,41.6667,2253.89)"><text x="88.952px" y="54.551px" style="font-family:'Consolas', monospace;font-size:13px;">Install bindings from</text><text x="71.083px" y="68.551px" style="font-family:'Consolas', monospace;font-size:13px;">the `MonoInstallers` list.</text></g></g><path d="M1250,2491.67c0,-59.791 -48.543,-108.334 -108.333,-108.334l-833.334,0c-59.79,0 -108.333,48.543 -108.333,108.334c0,59.79 48.543,108.333 108.333,108.333l833.334,0c59.79,0 108.333,-48.543 108.333,-108.333Z" style="fill:none;stroke:#000;stroke-width:4.17px;"/><path d="M2400,1758.33c0,-59.79 -48.543,-108.333 -108.333,-108.333l-833.334,0c-59.79,0 -108.333,48.543 -108.333,108.333c0,59.791 48.543,108.334 108.333,108.334l833.334,-0c59.79,-0 108.333,-48.543 108.333,-108.334Z" style="fill:#fff;"/><clipPath id="_clip13"><path d="M2400,1758.33c0,-59.79 -48.543,-108.333 -108.333,-108.333l-833.334,0c-59.79,0 -108.333,48.543 -108.333,108.333c0,59.791 48.543,108.334 108.333,108.334l833.334,-0c59.79,-0 108.333,-48.543 108.333,-108.334Z"/></clipPath><g clip-path="url(#_clip13)"><text x="1621.86px" y="1777.02px" style="font-family:'Consolas', monospace;font-size:54.167px;">Resolve bindings.</text></g><path d="M2400,1758.33c0,-59.79 -48.543,-108.333 -108.333,-108.333l-833.334,0c-59.79,0 -108.333,48.543 -108.333,108.333c0,59.791 48.543,108.334 108.333,108.334l833.334,-0c59.79,-0 108.333,-48.543 108.333,-108.334Z" style="fill:none;stroke:#000;stroke-width:4.17px;"/><path d="M1250,3125c0,-59.791 -48.543,-108.333 -108.333,-108.333l-833.334,-0c-59.79,-0 -108.333,48.542 -108.333,108.333c0,59.791 48.543,108.333 108.333,108.333l833.334,0c59.79,0 108.333,-48.542 108.333,-108.333Z" style="fill:#fff;"/><clipPath id="_clip14"><path d="M1250,3125c0,-59.791 -48.543,-108.333 -108.333,-108.333l-833.334,-0c-59.79,-0 -108.333,48.542 -108.333,108.333c0,59.791 48.543,108.333 108.333,108.333l833.334,0c59.79,0 108.333,-48.542 108.333,-108.333Z"/></clipPath><g clip-path="url(#_clip14)"><text x="412.299px" y="3143.69px" style="font-family:'Consolas', monospace;font-size:54.167px;">Resolve all bindings.</text></g><path d="M1250,3125c0,-59.791 -48.543,-108.333 -108.333,-108.333l-833.334,-0c-59.79,-0 -108.333,48.542 -108.333,108.333c0,59.791 48.543,108.333 108.333,108.333l833.334,0c59.79,0 108.333,-48.542 108.333,-108.333Z" style="fill:none;stroke:#000;stroke-width:4.17px;"/><path d="M1250,3758.33c0,-59.79 -48.543,-108.333 -108.333,-108.333l-833.334,0c-59.79,0 -108.333,48.543 -108.333,108.333c0,59.791 48.543,108.334 108.333,108.334l833.334,-0c59.79,-0 108.333,-48.543 108.333,-108.334Z" style="fill:#fff;"/><clipPath id="_clip15"><path d="M1250,3758.33c0,-59.79 -48.543,-108.333 -108.333,-108.333l-833.334,0c-59.79,0 -108.333,48.543 -108.333,108.333c0,59.791 48.543,108.334 108.333,108.334l833.334,-0c59.79,-0 108.333,-48.543 108.333,-108.334Z"/></clipPath><g clip-path="url(#_clip15)"><g transform="matrix(4.16667,0,0,4.16667,41.6667,3520.56)"><text x="74.657px" y="61.551px" style="font-family:'Consolas', monospace;font-size:13px;">Wait for</text><text x="138.984px" y="61.551px" style="font-family:'Consolas', monospace;font-size:13px;fill:#00a9ff;">PreLoadingDelay</text><text x="246.196px" y="61.551px" style="font-family:'Consolas', monospace;font-size:13px;">.</text></g></g><path d="M1250,3758.33c0,-59.79 -48.543,-108.333 -108.333,-108.333l-833.334,0c-59.79,0 -108.333,48.543 -108.333,108.333c0,59.791 48.543,108.334 108.333,108.334l833.334,-0c59.79,-0 108.333,-48.543 108.333,-108.334Z" style="fill:none;stroke:#000;stroke-width:4.17px;"/><path d="M1250,4825c0,-59.791 -48.543,-108.333 -108.333,-108.333l-833.334,-0c-59.79,-0 -108.333,48.542 -108.333,108.333c0,59.791 48.543,108.333 108.333,108.333l833.334,0c59.79,0 108.333,-48.542 108.333,-108.333Z" style="fill:#fff;"/><clipPath id="_clip16"><path d="M1250,4825c0,-59.791 -48.543,-108.333 -108.333,-108.333l-833.334,-0c-59.79,-0 -108.333,48.542 -108.333,108.333c0,59.791 48.543,108.333 108.333,108.333l833.334,0c59.79,0 108.333,-48.542 108.333,-108.333Z"/></clipPath><g clip-path="url(#_clip16)"><g transform="matrix(4.16667,0,0,4.16667,41.6667,4587.22)"><text x="71.083px" y="61.551px" style="font-family:'Consolas', monospace;font-size:13px;">Wait for</text><text x="135.41px" y="61.551px" style="font-family:'Consolas', monospace;font-size:13px;fill:#00a9ff;">PostLoadingDelay</text><text x="249.77px" y="61.551px" style="font-family:'Consolas', monospace;font-size:13px;">.</text></g></g><path d="M1250,4825c0,-59.791 -48.543,-108.333 -108.333,-108.333l-833.334,-0c-59.79,-0 -108.333,48.542 -108.333,108.333c0,59.791 48.543,108.333 108.333,108.333l833.334,0c59.79,0 108.333,-48.542 108.333,-108.333Z" style="fill:none;stroke:#000;stroke-width:4.17px;"/><path d="M1250,5775c0,-59.791 -48.543,-108.333 -108.333,-108.333l-833.334,-0c-59.79,-0 -108.333,48.542 -108.333,108.333c0,59.791 48.543,108.333 108.333,108.333l833.334,0c59.79,0 108.333,-48.542 108.333,-108.333Z" style="fill:#fff;"/><clipPath id="_clip17"><path d="M1250,5775c0,-59.791 -48.543,-108.333 -108.333,-108.333l-833.334,-0c-59.79,-0 -108.333,48.542 -108.333,108.333c0,59.791 48.543,108.333 108.333,108.333l833.334,0c59.79,0 108.333,-48.542 108.333,-108.333Z"/></clipPath><g clip-path="url(#_clip17)"><g transform="matrix(4.16667,0,0,4.16667,41.6667,5537.22)"><text x="67.509px" y="48.551px" style="font-family:'Consolas', monospace;font-size:13px;">Wait for requests to change</text><text x="128.263px" y="61.551px" style="font-family:'Consolas', monospace;font-size:13px;">the scene.</text><text x="109.569px" y="74.551px" style="font-family:'Consolas', monospace;font-size:11px;fill:#565656;">(ChangeScene(</text><text x="188.191px" y="74.551px" style="font-family:'Consolas', monospace;font-size:11px;fill:#00a9ff;">int</text><text x="206.335px" y="74.551px" style="font-family:'Consolas', monospace;font-size:11px;fill:#565656;">))</text></g></g><path d="M1250,5775c0,-59.791 -48.543,-108.333 -108.333,-108.333l-833.334,-0c-59.79,-0 -108.333,48.542 -108.333,108.333c0,59.791 48.543,108.333 108.333,108.333l833.334,0c59.79,0 108.333,-48.542 108.333,-108.333Z" style="fill:none;stroke:#000;stroke-width:4.17px;"/><path d="M1250,5141.67c0,-59.791 -48.543,-108.334 -108.333,-108.334l-833.334,0c-59.79,0 -108.333,48.543 -108.333,108.334c0,59.79 48.543,108.333 108.333,108.333l833.334,-0c59.79,-0 108.333,-48.543 108.333,-108.333Z" style="fill:#e4e4e4;"/><clipPath id="_clip18"><path d="M1250,5141.67c0,-59.791 -48.543,-108.334 -108.333,-108.334l-833.334,0c-59.79,0 -108.333,48.543 -108.333,108.334c0,59.79 48.543,108.333 108.333,108.333l833.334,-0c59.79,-0 108.333,-48.543 108.333,-108.333Z"/></clipPath><g clip-path="url(#_clip18)"><path d="M362.564,4981.25l-95.897,0l-166.667,320.833l95.897,0l166.667,-320.833Z" style="fill:#fff;"/><path d="M1159.71,4981.25l-95.898,0l-166.667,320.833l95.898,0l166.667,-320.833Z" style="fill:#fff;"/><path d="M476.442,4981.25l-95.897,0l-166.667,320.833l95.898,0l166.666,-320.833Z" style="fill:#fff;"/><path d="M1273.59,4981.25l-95.898,0l-166.666,320.833l95.897,0l166.667,-320.833Z" style="fill:#fff;"/><path d="M590.321,4981.25l-95.898,0l-166.667,320.833l95.898,0l166.667,-320.833Z" style="fill:#fff;"/><path d="M1387.47,4981.25l-95.897,-0l-166.667,320.833l95.897,0l166.667,-320.833Z" style="fill:#fff;"/><path d="M704.199,4981.25l-95.898,0l-166.666,320.833l95.897,0l166.667,-320.833Z" style="fill:#fff;"/><path d="M818.077,4981.25l-95.898,-0l-166.666,320.833l95.897,0l166.667,-320.833Z" style="fill:#fff;"/><path d="M931.955,4981.25l-95.897,0l-166.667,320.833l95.897,0l166.667,-320.833Z" style="fill:#fff;"/><path d="M1045.83,4981.25l-95.897,0l-166.667,320.833l95.898,0l166.666,-320.833Z" style="fill:#fff;"/><g transform="matrix(4.16667,0,0,4.16667,41.6667,4903.89)"><text x="67.509px" y="48.051px" style="font-family:'Consolas', monospace;font-size:13px;">Wait for the previous scene</text><text x="96.099px" y="61.051px" style="font-family:'Consolas', monospace;font-size:13px;">to ﬁnish unloading.</text><text x="103.521px" y="75.051px" style="font-family:'Consolas', monospace;font-size:11px;fill:#565656;">(if any in progress)</text></g></g><path d="M1250,5141.67c0,-59.791 -48.543,-108.334 -108.333,-108.334l-833.334,0c-59.79,0 -108.333,48.543 -108.333,108.334c0,59.79 48.543,108.333 108.333,108.333l833.334,-0c59.79,-0 108.333,-48.543 108.333,-108.333Z" style="fill:none;stroke:#000;stroke-width:4.17px;"/></g><g><path d="M734.375,354.167l-9.375,12.5l-9.375,-12.5l18.75,-0Z"/><path d="M725,6200l-0,100l-625,-0l0,-6033.33l625,-0l-0,90" style="fill:none;stroke:#000;stroke-width:4.17px;"/><path d="M734.375,2687.5l-9.375,12.5l-9.375,-12.5l18.75,-0Z"/><path d="M725,2600l0,90" style="fill:none;stroke:#000;stroke-width:4.17px;"/><path d="M734.375,5970.83l-9.375,12.5l-9.375,-12.5l18.75,0Z"/><path d="M725,5883.33l0,90" style="fill:none;stroke:#000;stroke-width:4.17px;"/><path d="M734.375,5337.5l-9.375,12.5l-9.375,-12.5l18.75,-0Z"/><path d="M725,5250l-0,90" style="fill:none;stroke:#000;stroke-width:4.17px;"/><path d="M734.375,5654.17l-9.375,12.5l-9.375,-12.5l18.75,-0Z"/><path d="M725,5566.67l-0,90" style="fill:none;stroke:#000;stroke-width:4.17px;"/><path d="M734.375,5020.83l-9.375,12.5l-9.375,-12.5l18.75,0Z"/><path d="M725,4933.33l0,90" style="fill:none;stroke:#000;stroke-width:4.17px;"/><path d="M734.375,4704.17l-9.375,12.5l-9.375,-12.5l18.75,-0Z"/><path d="M725,4616.67l-0,90" style="fill:none;stroke:#000;stroke-width:4.17px;"/><path d="M734.375,4387.5l-9.375,12.5l-9.375,-12.5l18.75,0Z"/><path d="M725,4166.67l-0,223.333" style="fill:none;stroke:#000;stroke-width:4.17px;"/><path d="M737.5,4309.38l-12.5,-9.375l12.5,-9.375l0,18.75Z"/><path d="M1875,4200l0,100l-1140,0" style="fill:none;stroke:#000;stroke-width:4.17px;"/><path d="M1337.5,4082.29l12.5,9.375l-12.5,9.375l0,-18.75Z"/><path d="M800,4091.67l540,-0" style="fill:none;stroke:#000;stroke-width:4.17px;"/><path d="M734.375,4004.17l-9.375,12.5l-9.375,-12.5l18.75,-0Z"/><path d="M725,3866.67l-0,140" style="fill:none;stroke:#000;stroke-width:4.17px;"/><path d="M734.375,3637.5l-9.375,12.5l-9.375,-12.5l18.75,-0Z"/><path d="M725,3550l-0,90" style="fill:none;stroke:#000;stroke-width:4.17px;"/><path d="M734.375,3320.83l-9.375,12.5l-9.375,-12.5l18.75,0Z"/><path d="M725,3233.33l-0,90" style="fill:none;stroke:#000;stroke-width:4.17px;"/><path d="M734.375,3004.17l-9.375,12.5l-9.375,-12.5l18.75,-0Z"/><path d="M725,2916.67l-0,90" style="fill:none;stroke:#000;stroke-width:4.17px;"/><path d="M734.375,2370.83l-9.375,12.5l-9.375,-12.5l18.75,0Z"/><path d="M725,2283.33l0,90" style="fill:none;stroke:#000;stroke-width:4.17px;"/><path d="M734.375,2054.17l-9.375,12.5l-9.375,-12.5l18.75,-0Z"/><path d="M725,883.333l-0,1173.33" style="fill:none;stroke:#000;stroke-width:4.17px;"/><path d="M737.5,1976.04l-12.5,-9.375l12.5,-9.375l0,18.75Z"/><path d="M1875,1866.67l0,100c0,-0 -1027.3,-0 -1140,-0" style="fill:none;stroke:#000;stroke-width:4.17px;"/><path d="M1884.38,1637.5l-9.375,12.5l-9.375,-12.5l18.75,0Z"/><path d="M1875,1550l0,90" style="fill:none;stroke:#000;stroke-width:4.17px;"/><path d="M1884.38,1320.83l-9.375,12.5l-9.375,-12.5l18.75,0Z"/><path d="M1875,1233.33l0,90" style="fill:none;stroke:#000;stroke-width:4.17px;"/><path d="M1884.38,1004.17l-9.375,12.5l-9.375,-12.5l18.75,-0Z"/><path d="M1875,916.667l-0,90" style="fill:none;stroke:#000;stroke-width:4.17px;"/><path d="M1337.5,798.958l12.5,9.375l-12.5,9.375l0,-18.75Z"/><path d="M800,808.333l540,0" style="fill:none;stroke:#000;stroke-width:4.17px;"/><path d="M734.375,720.833l-9.375,12.5l-9.375,-12.5l18.75,0Z"/><path d="M725,583.333l0,140" style="fill:none;stroke:#000;stroke-width:4.17px;"/></g><text x="800px" y="787.081px" style="font-family:'Consolas', monospace;font-size:41.667px;">The ﬁrst loading.</text><text x="737.5px" y="933.333px" style="font-family:'Consolas', monospace;font-size:41.667px;">Not the ﬁrst loading.</text><text x="737.5px" y="4216.67px" style="font-family:'Consolas', monospace;font-size:41.667px;">Not the ﬁrst loading.</text><text x="800px" y="4070.41px" style="font-family:'Consolas', monospace;font-size:41.667px;">The ﬁrst loading.</text><path d="M725,733.333l75,75l-75,75l-75,-75l75,-75Z" style="fill:#fff;stroke:#000;stroke-width:4.17px;"/><path d="M725,4016.67l75,75l-75,75l-75,-75l75,-75Z" style="fill:#fff;stroke:#000;stroke-width:4.17px;"/></g><g><text x="200px" y="139.665px" style="font-family:'Consolas', monospace;font-size:66.667px;">CoreController</text><text x="1350px" y="139.665px" style="font-family:'Consolas', monospace;font-size:66.667px;">CoreProjectContext</text><text x="2161.75px" y="204.038px" style="font-family:'Consolas', monospace;font-size:54.167px;fill:#717171;">STARTING</text><text x="2191.53px" y="637.372px" style="font-family:'Consolas', monospace;font-size:54.167px;fill:#717171;">BINDING</text><text x="2191.53px" y="3587.37px" style="font-family:'Consolas', monospace;font-size:54.167px;fill:#717171;">LOADING</text><text x="2191.53px" y="5604.04px" style="font-family:'Consolas', monospace;font-size:54.167px;fill:#717171;">WORKING</text><text x="2131.97px" y="5920.7px" style="font-family:'Consolas', monospace;font-size:54.167px;fill:#717171;">UNLOADING</text><path d="M2500,216.667l-2500,-0" style="fill:none;stroke:#9f9f9f;stroke-width:4.17px;stroke-dasharray:33.33,83.33,0,0;"/><path d="M2500,650l-2500,0" style="fill:none;stroke:#9f9f9f;stroke-width:4.17px;stroke-dasharray:33.33,83.33,0,0;"/><path d="M2500,3600l-2500,0" style="fill:none;stroke:#9f9f9f;stroke-width:4.17px;stroke-dasharray:33.33,83.33,0,0;"/><path d="M2500,5616.67l-2500,-0" style="fill:none;stroke:#9f9f9f;stroke-width:4.17px;stroke-dasharray:33.33,83.33,0,0;"/><path d="M2500,5933.33l-2500,0" style="fill:none;stroke:#9f9f9f;stroke-width:4.17px;stroke-dasharray:33.33,83.33,0,0;"/><path d="M150,66.667l0,6333.33l0,-6333.33Z" style="fill:none;stroke:#696969;stroke-width:4.17px;stroke-dasharray:33.33,83.33,0,0;"/><path d="M1300,66.667l0,6333.33l0,-6333.33Z" style="fill:none;stroke:#696969;stroke-width:4.17px;stroke-dasharray:33.33,83.33,0,0;"/></g></g></svg>