<?xml version="1.0" encoding="UTF-8"?>
<svg xmlns="http://www.w3.org/2000/svg" xmlns:xlink="http://www.w3.org/1999/xlink" width="38pt" height="38pt" viewBox="0 0 38 38" version="1.1">
<defs>
<clipPath id="clip1">
  <path d="M 27 17 L 31 17 L 31 19 L 27 19 Z M 27 17 "/>
</clipPath>
<clipPath id="clip2">
  <path d="M 31.269531 19 C 31.269531 19.464844 28.3125 20.621094 27.722656 20.390625 C 27.128906 20.15625 27.128906 17.84375 27.722656 17.609375 C 28.3125 17.378906 31.269531 18.535156 31.269531 19 Z M 31.269531 19 "/>
</clipPath>
<clipPath id="clip3">
  <path d="M 27 19 L 30 19 L 30 21 L 27 21 Z M 27 19 "/>
</clipPath>
<clipPath id="clip4">
  <path d="M 31.269531 19 C 31.269531 19.464844 28.3125 20.621094 27.722656 20.390625 C 27.128906 20.15625 27.128906 17.84375 27.722656 17.609375 C 28.3125 17.378906 31.269531 18.535156 31.269531 19 Z M 31.269531 19 "/>
</clipPath>
<clipPath id="clip5">
  <path d="M 13 4 L 25 4 L 25 34 L 13 34 Z M 13 4 "/>
</clipPath>
<clipPath id="clip6">
  <path d="M 16.972656 33.929688 L 12.972656 31.726562 L 12.972656 29.484375 C 16.140625 28.472656 18.804688 25.992188 20.457031 20.59375 L 22.53125 20.59375 L 25.570312 21.449219 C 25.785156 21.488281 25.445312 22.128906 25.445312 22.128906 C 25.445312 22.003906 22.050781 25.425781 16.972656 29.851562 L 16.972656 30.792969 L 18.308594 31.359375 Z M 16.972656 4.070312 L 12.972656 6.273438 L 12.972656 8.515625 C 16.140625 9.527344 18.804688 12.007812 20.457031 17.40625 L 22.53125 17.40625 L 25.570312 16.550781 C 25.785156 16.511719 25.445312 15.871094 25.445312 15.871094 C 25.445312 15.996094 22.050781 12.574219 16.972656 8.148438 L 16.972656 7.207031 L 18.308594 6.640625 Z M 16.972656 4.070312 "/>
</clipPath>
<clipPath id="clip7">
  <path d="M 14 5 L 18 5 L 18 8 L 14 8 Z M 14 5 "/>
</clipPath>
<clipPath id="clip8">
  <path d="M 16.972656 33.929688 L 12.972656 31.726562 L 12.972656 29.484375 C 16.140625 28.472656 18.804688 25.992188 20.457031 20.59375 L 22.53125 20.59375 L 25.570312 21.449219 C 25.785156 21.488281 25.445312 22.128906 25.445312 22.128906 C 25.445312 22.003906 22.050781 25.425781 16.972656 29.851562 L 16.972656 30.792969 L 18.308594 31.359375 Z M 16.972656 4.070312 L 12.972656 6.273438 L 12.972656 8.515625 C 16.140625 9.527344 18.804688 12.007812 20.457031 17.40625 L 22.53125 17.40625 L 25.570312 16.550781 C 25.785156 16.511719 25.445312 15.871094 25.445312 15.871094 C 25.445312 15.996094 22.050781 12.574219 16.972656 8.148438 L 16.972656 7.207031 L 18.308594 6.640625 Z M 16.972656 4.070312 "/>
</clipPath>
<clipPath id="clip9">
  <path d="M 21.0625 20.925781 L 21.0625 17.074219 C 20.976562 14.894531 18.804688 11.480469 16.214844 9.441406 C 15.285156 8.710938 13.71875 8.4375 13.519531 8.335938 L 13.769531 6.273438 L 16.59375 4.863281 L 17.609375 6.566406 L 16.214844 7.207031 L 16.214844 8.148438 C 23.300781 14.058594 24.234375 16.03125 24.234375 16.03125 L 22.167969 17.074219 L 21.960938 19 L 22.167969 20.925781 L 24.234375 21.96875 C 24.234375 21.96875 23.300781 23.941406 16.214844 29.851562 L 16.214844 30.792969 L 17.609375 31.433594 L 16.59375 33.136719 L 13.769531 31.726562 L 13.519531 29.664062 C 13.71875 29.5625 15.285156 29.289062 16.214844 28.558594 C 18.804688 26.519531 20.976562 23.105469 21.0625 20.925781 Z M 21.0625 20.925781 "/>
</clipPath>
<clipPath id="clip10">
  <path d="M 21 13 L 24 13 L 24 17 L 21 17 Z M 21 13 "/>
</clipPath>
<clipPath id="clip11">
  <path d="M 16.972656 33.929688 L 12.972656 31.726562 L 12.972656 29.484375 C 16.140625 28.472656 18.804688 25.992188 20.457031 20.59375 L 22.53125 20.59375 L 25.570312 21.449219 C 25.785156 21.488281 25.445312 22.128906 25.445312 22.128906 C 25.445312 22.003906 22.050781 25.425781 16.972656 29.851562 L 16.972656 30.792969 L 18.308594 31.359375 Z M 16.972656 4.070312 L 12.972656 6.273438 L 12.972656 8.515625 C 16.140625 9.527344 18.804688 12.007812 20.457031 17.40625 L 22.53125 17.40625 L 25.570312 16.550781 C 25.785156 16.511719 25.445312 15.871094 25.445312 15.871094 C 25.445312 15.996094 22.050781 12.574219 16.972656 8.148438 L 16.972656 7.207031 L 18.308594 6.640625 Z M 16.972656 4.070312 "/>
</clipPath>
<clipPath id="clip12">
  <path d="M 21.0625 20.925781 L 21.0625 17.074219 C 20.976562 14.894531 18.804688 11.480469 16.214844 9.441406 C 15.285156 8.710938 13.71875 8.4375 13.519531 8.335938 L 13.769531 6.273438 L 16.59375 4.863281 L 17.609375 6.566406 L 16.214844 7.207031 L 16.214844 8.148438 C 23.300781 14.058594 24.234375 16.03125 24.234375 16.03125 L 22.167969 17.074219 L 21.960938 19 L 22.167969 20.925781 L 24.234375 21.96875 C 24.234375 21.96875 23.300781 23.941406 16.214844 29.851562 L 16.214844 30.792969 L 17.609375 31.433594 L 16.59375 33.136719 L 13.769531 31.726562 L 13.519531 29.664062 C 13.71875 29.5625 15.285156 29.289062 16.214844 28.558594 C 18.804688 26.519531 20.976562 23.105469 21.0625 20.925781 Z M 21.0625 20.925781 "/>
</clipPath>
<clipPath id="clip13">
  <path d="M 17 24 L 22 24 L 22 29 L 17 29 Z M 17 24 "/>
</clipPath>
<clipPath id="clip14">
  <path d="M 16.972656 33.929688 L 12.972656 31.726562 L 12.972656 29.484375 C 16.140625 28.472656 18.804688 25.992188 20.457031 20.59375 L 22.53125 20.59375 L 25.570312 21.449219 C 25.785156 21.488281 25.445312 22.128906 25.445312 22.128906 C 25.445312 22.003906 22.050781 25.425781 16.972656 29.851562 L 16.972656 30.792969 L 18.308594 31.359375 Z M 16.972656 4.070312 L 12.972656 6.273438 L 12.972656 8.515625 C 16.140625 9.527344 18.804688 12.007812 20.457031 17.40625 L 22.53125 17.40625 L 25.570312 16.550781 C 25.785156 16.511719 25.445312 15.871094 25.445312 15.871094 C 25.445312 15.996094 22.050781 12.574219 16.972656 8.148438 L 16.972656 7.207031 L 18.308594 6.640625 Z M 16.972656 4.070312 "/>
</clipPath>
<clipPath id="clip15">
  <path d="M 21.0625 20.925781 L 21.0625 17.074219 C 20.976562 14.894531 18.804688 11.480469 16.214844 9.441406 C 15.285156 8.710938 13.71875 8.4375 13.519531 8.335938 L 13.769531 6.273438 L 16.59375 4.863281 L 17.609375 6.566406 L 16.214844 7.207031 L 16.214844 8.148438 C 23.300781 14.058594 24.234375 16.03125 24.234375 16.03125 L 22.167969 17.074219 L 21.960938 19 L 22.167969 20.925781 L 24.234375 21.96875 C 24.234375 21.96875 23.300781 23.941406 16.214844 29.851562 L 16.214844 30.792969 L 17.609375 31.433594 L 16.59375 33.136719 L 13.769531 31.726562 L 13.519531 29.664062 C 13.71875 29.5625 15.285156 29.289062 16.214844 28.558594 C 18.804688 26.519531 20.976562 23.105469 21.0625 20.925781 Z M 21.0625 20.925781 "/>
</clipPath>
<clipPath id="clip16">
  <path d="M 13 29 L 16 29 L 16 32 L 13 32 Z M 13 29 "/>
</clipPath>
<clipPath id="clip17">
  <path d="M 16.972656 33.929688 L 12.972656 31.726562 L 12.972656 29.484375 C 16.140625 28.472656 18.804688 25.992188 20.457031 20.59375 L 22.53125 20.59375 L 25.570312 21.449219 C 25.785156 21.488281 25.445312 22.128906 25.445312 22.128906 C 25.445312 22.003906 22.050781 25.425781 16.972656 29.851562 L 16.972656 30.792969 L 18.308594 31.359375 Z M 16.972656 4.070312 L 12.972656 6.273438 L 12.972656 8.515625 C 16.140625 9.527344 18.804688 12.007812 20.457031 17.40625 L 22.53125 17.40625 L 25.570312 16.550781 C 25.785156 16.511719 25.445312 15.871094 25.445312 15.871094 C 25.445312 15.996094 22.050781 12.574219 16.972656 8.148438 L 16.972656 7.207031 L 18.308594 6.640625 Z M 16.972656 4.070312 "/>
</clipPath>
<clipPath id="clip18">
  <path d="M 21.0625 20.925781 L 21.0625 17.074219 C 20.976562 14.894531 18.804688 11.480469 16.214844 9.441406 C 15.285156 8.710938 13.71875 8.4375 13.519531 8.335938 L 13.769531 6.273438 L 16.59375 4.863281 L 17.609375 6.566406 L 16.214844 7.207031 L 16.214844 8.148438 C 23.300781 14.058594 24.234375 16.03125 24.234375 16.03125 L 22.167969 17.074219 L 21.960938 19 L 22.167969 20.925781 L 24.234375 21.96875 C 24.234375 21.96875 23.300781 23.941406 16.214844 29.851562 L 16.214844 30.792969 L 17.609375 31.433594 L 16.59375 33.136719 L 13.769531 31.726562 L 13.519531 29.664062 C 13.71875 29.5625 15.285156 29.289062 16.214844 28.558594 C 18.804688 26.519531 20.976562 23.105469 21.0625 20.925781 Z M 21.0625 20.925781 "/>
</clipPath>
<clipPath id="clip19">
  <path d="M 13 7 L 15 7 L 15 9 L 13 9 Z M 13 7 "/>
</clipPath>
<clipPath id="clip20">
  <path d="M 16.972656 33.929688 L 12.972656 31.726562 L 12.972656 29.484375 C 16.140625 28.472656 18.804688 25.992188 20.457031 20.59375 L 22.53125 20.59375 L 25.570312 21.449219 C 25.785156 21.488281 25.445312 22.128906 25.445312 22.128906 C 25.445312 22.003906 22.050781 25.425781 16.972656 29.851562 L 16.972656 30.792969 L 18.308594 31.359375 Z M 16.972656 4.070312 L 12.972656 6.273438 L 12.972656 8.515625 C 16.140625 9.527344 18.804688 12.007812 20.457031 17.40625 L 22.53125 17.40625 L 25.570312 16.550781 C 25.785156 16.511719 25.445312 15.871094 25.445312 15.871094 C 25.445312 15.996094 22.050781 12.574219 16.972656 8.148438 L 16.972656 7.207031 L 18.308594 6.640625 Z M 16.972656 4.070312 "/>
</clipPath>
<clipPath id="clip21">
  <path d="M 21.0625 20.925781 L 21.0625 17.074219 C 20.976562 14.894531 18.804688 11.480469 16.214844 9.441406 C 15.285156 8.710938 13.71875 8.4375 13.519531 8.335938 L 13.769531 6.273438 L 16.59375 4.863281 L 17.609375 6.566406 L 16.214844 7.207031 L 16.214844 8.148438 C 23.300781 14.058594 24.234375 16.03125 24.234375 16.03125 L 22.167969 17.074219 L 21.960938 19 L 22.167969 20.925781 L 24.234375 21.96875 C 24.234375 21.96875 23.300781 23.941406 16.214844 29.851562 L 16.214844 30.792969 L 17.609375 31.433594 L 16.59375 33.136719 L 13.769531 31.726562 L 13.519531 29.664062 C 13.71875 29.5625 15.285156 29.289062 16.214844 28.558594 C 18.804688 26.519531 20.976562 23.105469 21.0625 20.925781 Z M 21.0625 20.925781 "/>
</clipPath>
<clipPath id="clip22">
  <path d="M 21 17 L 23 17 L 23 19 L 21 19 Z M 21 17 "/>
</clipPath>
<clipPath id="clip23">
  <path d="M 20.558594 19 C 20.554688 18.496094 20.515625 17.988281 20.4375 17.46875 C 20.4375 17.46875 20.816406 17.074219 21.105469 17.074219 C 21.457031 17.074219 22.554688 17.46875 22.554688 17.46875 C 22.488281 17.992188 22.457031 18.503906 22.453125 19 C 22.457031 19.496094 22.488281 20.007812 22.554688 20.53125 C 22.554688 20.53125 21.457031 20.925781 21.105469 20.925781 C 20.816406 20.925781 20.4375 20.53125 20.4375 20.53125 C 20.515625 20.011719 20.554688 19.503906 20.558594 19 Z M 20.558594 19 "/>
</clipPath>
<clipPath id="clip24">
  <path d="M 21 19 L 23 19 L 23 20 L 21 20 Z M 21 19 "/>
</clipPath>
<clipPath id="clip25">
  <path d="M 20.558594 19 C 20.554688 18.496094 20.515625 17.988281 20.4375 17.46875 C 20.4375 17.46875 20.816406 17.074219 21.105469 17.074219 C 21.457031 17.074219 22.554688 17.46875 22.554688 17.46875 C 22.488281 17.992188 22.457031 18.503906 22.453125 19 C 22.457031 19.496094 22.488281 20.007812 22.554688 20.53125 C 22.554688 20.53125 21.457031 20.925781 21.105469 20.925781 C 20.816406 20.925781 20.4375 20.53125 20.4375 20.53125 C 20.515625 20.011719 20.554688 19.503906 20.558594 19 Z M 20.558594 19 "/>
</clipPath>
<clipPath id="clip26">
  <path d="M 7 18 L 8 18 L 8 20 L 7 20 Z M 7 18 "/>
</clipPath>
<clipPath id="clip27">
  <path d="M 7.152344 17.769531 C 7.003906 17.984375 6.957031 18.800781 6.96875 19.324219 C 6.988281 20.003906 7.039062 21.332031 7.257812 21.851562 C 7.414062 22.214844 7.894531 22.460938 8.292969 22.4375 C 8.902344 22.40625 10.117188 22.097656 10.910156 21.644531 C 11.535156 21.285156 12.796875 20.472656 13.417969 19.894531 C 13.558594 19.761719 15.398438 19.667969 15.4375 19.570312 C 15.476562 19.472656 14.296875 19.308594 13.71875 19.324219 C 13.527344 19.328125 13.246094 19.128906 13.003906 19.179688 C 12.300781 19.320312 11.511719 19.808594 10.910156 19.691406 C 10.519531 19.613281 9.75 19.101562 9.34375 19 C 8.902344 18.886719 8.828125 19.179688 8.511719 18.96875 C 8.246094 18.792969 8.058594 18.292969 7.855469 18.039062 C 7.601562 17.714844 7.296875 17.5625 7.152344 17.769531 Z M 7.152344 17.769531 "/>
</clipPath>
<clipPath id="clip28">
  <path d="M 7 17 L 9 17 L 9 19 L 7 19 Z M 7 17 "/>
</clipPath>
<clipPath id="clip29">
  <path d="M 7.152344 17.769531 C 7.003906 17.984375 6.957031 18.800781 6.96875 19.324219 C 6.988281 20.003906 7.039062 21.332031 7.257812 21.851562 C 7.414062 22.214844 7.894531 22.460938 8.292969 22.4375 C 8.902344 22.40625 10.117188 22.097656 10.910156 21.644531 C 11.535156 21.285156 12.796875 20.472656 13.417969 19.894531 C 13.558594 19.761719 15.398438 19.667969 15.4375 19.570312 C 15.476562 19.472656 14.296875 19.308594 13.71875 19.324219 C 13.527344 19.328125 13.246094 19.128906 13.003906 19.179688 C 12.300781 19.320312 11.511719 19.808594 10.910156 19.691406 C 10.519531 19.613281 9.75 19.101562 9.34375 19 C 8.902344 18.886719 8.828125 19.179688 8.511719 18.96875 C 8.246094 18.792969 8.058594 18.292969 7.855469 18.039062 C 7.601562 17.714844 7.296875 17.5625 7.152344 17.769531 Z M 7.152344 17.769531 "/>
</clipPath>
<clipPath id="clip30">
  <path d="M 9 20 L 10 20 L 10 21 L 9 21 Z M 9 20 "/>
</clipPath>
<clipPath id="clip31">
  <path d="M 7.152344 17.769531 C 7.003906 17.984375 6.957031 18.800781 6.96875 19.324219 C 6.988281 20.003906 7.039062 21.332031 7.257812 21.851562 C 7.414062 22.214844 7.894531 22.460938 8.292969 22.4375 C 8.902344 22.40625 10.117188 22.097656 10.910156 21.644531 C 11.535156 21.285156 12.796875 20.472656 13.417969 19.894531 C 13.558594 19.761719 15.398438 19.667969 15.4375 19.570312 C 15.476562 19.472656 14.296875 19.308594 13.71875 19.324219 C 13.527344 19.328125 13.246094 19.128906 13.003906 19.179688 C 12.300781 19.320312 11.511719 19.808594 10.910156 19.691406 C 10.519531 19.613281 9.75 19.101562 9.34375 19 C 8.902344 18.886719 8.828125 19.179688 8.511719 18.96875 C 8.246094 18.792969 8.058594 18.292969 7.855469 18.039062 C 7.601562 17.714844 7.296875 17.5625 7.152344 17.769531 Z M 7.152344 17.769531 "/>
</clipPath>
<clipPath id="clip32">
  <path d="M 11 19 L 13 19 L 13 20 L 11 20 Z M 11 19 "/>
</clipPath>
<clipPath id="clip33">
  <path d="M 7.152344 17.769531 C 7.003906 17.984375 6.957031 18.800781 6.96875 19.324219 C 6.988281 20.003906 7.039062 21.332031 7.257812 21.851562 C 7.414062 22.214844 7.894531 22.460938 8.292969 22.4375 C 8.902344 22.40625 10.117188 22.097656 10.910156 21.644531 C 11.535156 21.285156 12.796875 20.472656 13.417969 19.894531 C 13.558594 19.761719 15.398438 19.667969 15.4375 19.570312 C 15.476562 19.472656 14.296875 19.308594 13.71875 19.324219 C 13.527344 19.328125 13.246094 19.128906 13.003906 19.179688 C 12.300781 19.320312 11.511719 19.808594 10.910156 19.691406 C 10.519531 19.613281 9.75 19.101562 9.34375 19 C 8.902344 18.886719 8.828125 19.179688 8.511719 18.96875 C 8.246094 18.792969 8.058594 18.292969 7.855469 18.039062 C 7.601562 17.714844 7.296875 17.5625 7.152344 17.769531 Z M 7.152344 17.769531 "/>
</clipPath>
<clipPath id="clip34">
  <path d="M 7 20 L 9 20 L 9 22 L 7 22 Z M 7 20 "/>
</clipPath>
<clipPath id="clip35">
  <path d="M 7.152344 17.769531 C 7.003906 17.984375 6.957031 18.800781 6.96875 19.324219 C 6.988281 20.003906 7.039062 21.332031 7.257812 21.851562 C 7.414062 22.214844 7.894531 22.460938 8.292969 22.4375 C 8.902344 22.40625 10.117188 22.097656 10.910156 21.644531 C 11.535156 21.285156 12.796875 20.472656 13.417969 19.894531 C 13.558594 19.761719 15.398438 19.667969 15.4375 19.570312 C 15.476562 19.472656 14.296875 19.308594 13.71875 19.324219 C 13.527344 19.328125 13.246094 19.128906 13.003906 19.179688 C 12.300781 19.320312 11.511719 19.808594 10.910156 19.691406 C 10.519531 19.613281 9.75 19.101562 9.34375 19 C 8.902344 18.886719 8.828125 19.179688 8.511719 18.96875 C 8.246094 18.792969 8.058594 18.292969 7.855469 18.039062 C 7.601562 17.714844 7.296875 17.5625 7.152344 17.769531 Z M 7.152344 17.769531 "/>
</clipPath>
</defs>
<g id="surface1">
<path style="fill:none;stroke-width:7.03;stroke-linecap:round;stroke-linejoin:round;stroke:rgb(86.27451%,72.54902%,56.862745%);stroke-opacity:1;stroke-miterlimit:1.5;" d="M 194.368421 109.947368 C 194.368421 109.947368 102.263158 241.526316 102.263158 256 C 102.263158 270.473684 194.368421 402.052632 194.368421 402.052632 " transform="matrix(0.0742188,0,0,0.0742188,0,0)"/>
<path style=" stroke:none;fill-rule:evenodd;fill:rgb(100%,86.27451%,70.196078%);fill-opacity:1;" d="M 7.589844 18.75 L 30.558594 18.75 L 30.558594 19.25 L 7.589844 19.25 Z M 7.589844 18.75 "/>
<path style=" stroke:none;fill-rule:evenodd;fill:rgb(25.490196%,25.490196%,25.490196%);fill-opacity:1;" d="M 31.269531 19 C 31.269531 19.464844 28.3125 20.621094 27.722656 20.390625 C 27.128906 20.15625 27.128906 17.84375 27.722656 17.609375 C 28.3125 17.378906 31.269531 18.535156 31.269531 19 Z M 31.269531 19 "/>
<g clip-path="url(#clip1)" clip-rule="nonzero">
<g clip-path="url(#clip2)" clip-rule="evenodd">
<path style=" stroke:none;fill-rule:evenodd;fill:rgb(43.529412%,43.529412%,43.529412%);fill-opacity:1;" d="M 28.183594 17.855469 C 28.714844 17.886719 30.707031 18.636719 30.859375 18.84375 C 30.976562 19 29.625 18.660156 29.144531 18.652344 C 28.746094 18.648438 28.207031 18.863281 27.964844 18.796875 C 27.726562 18.734375 27.667969 18.429688 27.707031 18.269531 C 27.742188 18.113281 27.9375 17.839844 28.183594 17.855469 Z M 28.183594 17.855469 "/>
</g>
</g>
<g clip-path="url(#clip3)" clip-rule="nonzero">
<g clip-path="url(#clip4)" clip-rule="evenodd">
<path style=" stroke:none;fill-rule:evenodd;fill:rgb(43.529412%,43.529412%,43.529412%);fill-opacity:1;" d="M 27.863281 19.738281 C 27.945312 19.726562 28.082031 19.890625 28.222656 19.910156 C 28.421875 19.9375 29.085938 19.855469 29.066406 19.910156 C 29.042969 19.964844 28.316406 20.226562 28.09375 20.242188 C 27.929688 20.25 27.773438 20.070312 27.734375 19.988281 C 27.695312 19.902344 27.785156 19.75 27.863281 19.738281 Z M 27.863281 19.738281 "/>
</g>
</g>
<path style=" stroke:none;fill-rule:evenodd;fill:rgb(56.862745%,46.27451%,40%);fill-opacity:1;" d="M 16.972656 33.929688 L 12.972656 31.726562 L 12.972656 29.484375 C 16.140625 28.472656 18.804688 25.992188 20.457031 20.59375 L 22.53125 20.59375 L 25.570312 21.449219 C 25.785156 21.488281 25.445312 22.128906 25.445312 22.128906 C 25.445312 22.003906 22.050781 25.425781 16.972656 29.851562 L 16.972656 30.792969 L 18.308594 31.359375 Z M 16.972656 4.070312 L 12.972656 6.273438 L 12.972656 8.515625 C 16.140625 9.527344 18.804688 12.007812 20.457031 17.40625 L 22.53125 17.40625 L 25.570312 16.550781 C 25.785156 16.511719 25.445312 15.871094 25.445312 15.871094 C 25.445312 15.996094 22.050781 12.574219 16.972656 8.148438 L 16.972656 7.207031 L 18.308594 6.640625 Z M 16.972656 4.070312 "/>
<g clip-path="url(#clip5)" clip-rule="nonzero">
<g clip-path="url(#clip6)" clip-rule="evenodd">
<path style=" stroke:none;fill-rule:evenodd;fill:rgb(39.215686%,29.019608%,23.137255%);fill-opacity:1;" d="M 21.0625 20.925781 L 21.0625 17.074219 C 20.976562 14.894531 18.804688 11.480469 16.214844 9.441406 C 15.285156 8.710938 13.71875 8.4375 13.519531 8.335938 L 13.769531 6.273438 L 16.59375 4.863281 L 17.609375 6.566406 L 16.214844 7.207031 L 16.214844 8.148438 C 23.300781 14.058594 24.234375 16.03125 24.234375 16.03125 L 22.167969 17.074219 L 21.960938 19 L 22.167969 20.925781 L 24.234375 21.96875 C 24.234375 21.96875 23.300781 23.941406 16.214844 29.851562 L 16.214844 30.792969 L 17.609375 31.433594 L 16.59375 33.136719 L 13.769531 31.726562 L 13.519531 29.664062 C 13.71875 29.5625 15.285156 29.289062 16.214844 28.558594 C 18.804688 26.519531 20.976562 23.105469 21.0625 20.925781 Z M 21.0625 20.925781 "/>
</g>
</g>
<g clip-path="url(#clip7)" clip-rule="nonzero">
<g clip-path="url(#clip8)" clip-rule="evenodd">
<g clip-path="url(#clip9)" clip-rule="evenodd">
<path style=" stroke:none;fill-rule:evenodd;fill:rgb(89.411765%,75.294118%,58.431373%);fill-opacity:0.858824;" d="M 14.71875 6.03125 L 16.472656 5.214844 L 17.210938 6.488281 L 15.949219 7.042969 L 15.949219 7.988281 L 15.605469 7.433594 L 15.605469 6.796875 L 16.472656 6.175781 L 16.21875 5.75 L 15.753906 6.175781 L 14.550781 6.796875 Z M 14.71875 6.03125 "/>
</g>
</g>
</g>
<g clip-path="url(#clip10)" clip-rule="nonzero">
<g clip-path="url(#clip11)" clip-rule="evenodd">
<g clip-path="url(#clip12)" clip-rule="evenodd">
<path style=" stroke:none;fill-rule:evenodd;fill:rgb(89.411765%,75.294118%,58.431373%);fill-opacity:0.858824;" d="M 21.589844 13.527344 L 23.210938 15.328125 L 23.632812 15.96875 L 22.636719 16.492188 L 22.960938 15.96875 L 22.332031 14.667969 Z M 21.589844 13.527344 "/>
</g>
</g>
</g>
<g clip-path="url(#clip13)" clip-rule="nonzero">
<g clip-path="url(#clip14)" clip-rule="evenodd">
<g clip-path="url(#clip15)" clip-rule="evenodd">
<path style=" stroke:none;fill-rule:evenodd;fill:rgb(89.411765%,75.294118%,58.431373%);fill-opacity:0.858824;" d="M 21.40625 24.789062 C 20.621094 25.824219 19.125 27.0625 17.542969 28.484375 L 19.742188 25.886719 Z M 21.40625 24.789062 "/>
</g>
</g>
</g>
<g clip-path="url(#clip16)" clip-rule="nonzero">
<g clip-path="url(#clip17)" clip-rule="evenodd">
<g clip-path="url(#clip18)" clip-rule="evenodd">
<path style=" stroke:none;fill-rule:evenodd;fill:rgb(89.411765%,75.294118%,58.431373%);fill-opacity:0.858824;" d="M 14.539062 29.699219 L 13.824219 29.925781 L 13.902344 30.609375 L 15.199219 31.511719 L 14.15625 30.140625 Z M 14.539062 29.699219 "/>
</g>
</g>
</g>
<g clip-path="url(#clip19)" clip-rule="nonzero">
<g clip-path="url(#clip20)" clip-rule="evenodd">
<g clip-path="url(#clip21)" clip-rule="evenodd">
<path style=" stroke:none;fill-rule:evenodd;fill:rgb(89.411765%,75.294118%,58.431373%);fill-opacity:0.858824;" d="M 13.902344 7.734375 L 14.511719 8.121094 L 14.441406 8.40625 L 13.824219 8.226562 Z M 13.902344 7.734375 "/>
</g>
</g>
</g>
<path style=" stroke:none;fill-rule:evenodd;fill:rgb(72.156863%,68.627451%,66.666667%);fill-opacity:1;" d="M 20.558594 19 C 20.554688 18.496094 20.515625 17.988281 20.4375 17.46875 C 20.4375 17.46875 20.816406 17.074219 21.105469 17.074219 C 21.457031 17.074219 22.554688 17.46875 22.554688 17.46875 C 22.488281 17.992188 22.457031 18.503906 22.453125 19 C 22.457031 19.496094 22.488281 20.007812 22.554688 20.53125 C 22.554688 20.53125 21.457031 20.925781 21.105469 20.925781 C 20.816406 20.925781 20.4375 20.53125 20.4375 20.53125 C 20.515625 20.011719 20.554688 19.503906 20.558594 19 Z M 20.558594 19 "/>
<g clip-path="url(#clip22)" clip-rule="nonzero">
<g clip-path="url(#clip23)" clip-rule="evenodd">
<path style=" stroke:none;fill-rule:evenodd;fill:rgb(56.470588%,51.372549%,48.235294%);fill-opacity:1;" d="M 21.265625 17.40625 C 21.367188 17.246094 22.144531 17.492188 22.265625 17.6875 C 22.378906 17.871094 22.261719 18.554688 22.265625 18.707031 C 22.269531 18.878906 21.671875 18.8125 21.660156 18.648438 C 21.589844 17.8125 21.164062 17.566406 21.265625 17.40625 Z M 21.265625 17.40625 "/>
</g>
</g>
<g clip-path="url(#clip24)" clip-rule="nonzero">
<g clip-path="url(#clip25)" clip-rule="evenodd">
<path style=" stroke:none;fill-rule:evenodd;fill:rgb(56.470588%,51.372549%,48.235294%);fill-opacity:1;" d="M 21.78125 19.210938 C 21.855469 19.132812 22.214844 19.15625 22.234375 19.296875 C 22.25 19.425781 22.152344 19.734375 22.125 19.832031 C 22.097656 19.9375 21.789062 19.890625 21.796875 19.78125 C 21.820312 19.542969 21.710938 19.292969 21.78125 19.210938 Z M 21.78125 19.210938 "/>
</g>
</g>
<path style=" stroke:none;fill-rule:evenodd;fill:rgb(100%,35.686275%,35.686275%);fill-opacity:1;" d="M 7.152344 17.769531 C 7.003906 17.984375 6.957031 18.800781 6.96875 19.324219 C 6.988281 20.003906 7.039062 21.332031 7.257812 21.851562 C 7.414062 22.214844 7.894531 22.460938 8.292969 22.4375 C 8.902344 22.40625 10.117188 22.097656 10.910156 21.644531 C 11.535156 21.285156 12.796875 20.472656 13.417969 19.894531 C 13.558594 19.761719 15.398438 19.667969 15.4375 19.570312 C 15.476562 19.472656 14.296875 19.308594 13.71875 19.324219 C 13.527344 19.328125 13.246094 19.128906 13.003906 19.179688 C 12.300781 19.320312 11.511719 19.808594 10.910156 19.691406 C 10.519531 19.613281 9.75 19.101562 9.34375 19 C 8.902344 18.886719 8.828125 19.179688 8.511719 18.96875 C 8.246094 18.792969 8.058594 18.292969 7.855469 18.039062 C 7.601562 17.714844 7.296875 17.5625 7.152344 17.769531 Z M 7.152344 17.769531 "/>
<g clip-path="url(#clip26)" clip-rule="nonzero">
<g clip-path="url(#clip27)" clip-rule="evenodd">
<path style=" stroke:none;fill-rule:evenodd;fill:rgb(100%,58.823529%,58.823529%);fill-opacity:1;" d="M 7.476562 18.816406 C 7.503906 18.828125 7.539062 18.925781 7.558594 18.96875 C 7.570312 19.003906 7.675781 19.082031 7.585938 19.082031 C 7.496094 19.082031 7.40625 18.949219 7.386719 18.902344 C 7.371094 18.863281 7.449219 18.804688 7.476562 18.816406 Z M 7.476562 18.816406 "/>
</g>
</g>
<g clip-path="url(#clip28)" clip-rule="nonzero">
<g clip-path="url(#clip29)" clip-rule="evenodd">
<path style=" stroke:none;fill-rule:evenodd;fill:rgb(100%,58.823529%,58.823529%);fill-opacity:1;" d="M 7.929688 18.605469 C 7.980469 18.695312 8.117188 18.839844 8.066406 18.886719 C 8.015625 18.933594 7.726562 18.960938 7.625 18.886719 C 7.527344 18.816406 7.484375 18.609375 7.464844 18.453125 C 7.445312 18.292969 7.429688 17.925781 7.511719 17.921875 C 7.691406 17.902344 7.835938 18.445312 7.929688 18.605469 Z M 7.929688 18.605469 "/>
</g>
</g>
<g clip-path="url(#clip30)" clip-rule="nonzero">
<g clip-path="url(#clip31)" clip-rule="evenodd">
<path style=" stroke:none;fill-rule:evenodd;fill:rgb(100%,58.823529%,58.823529%);fill-opacity:1;" d="M 9.3125 20.203125 C 9.410156 20.203125 9.609375 20.320312 9.609375 20.386719 C 9.609375 20.453125 9.527344 20.503906 9.429688 20.503906 C 9.332031 20.503906 9.253906 20.453125 9.253906 20.386719 C 9.253906 20.320312 9.214844 20.203125 9.3125 20.203125 Z M 9.3125 20.203125 "/>
</g>
</g>
<g clip-path="url(#clip32)" clip-rule="nonzero">
<g clip-path="url(#clip33)" clip-rule="evenodd">
<path style=" stroke:none;fill-rule:evenodd;fill:rgb(100%,58.823529%,58.823529%);fill-opacity:1;" d="M 11.957031 19.75 C 12.035156 19.75 12.136719 19.730469 12.136719 19.773438 C 12.136719 19.816406 12.066406 19.945312 11.988281 19.945312 C 11.910156 19.945312 11.816406 19.871094 11.816406 19.828125 C 11.816406 19.785156 11.878906 19.75 11.957031 19.75 Z M 11.957031 19.75 "/>
</g>
</g>
<g clip-path="url(#clip34)" clip-rule="nonzero">
<g clip-path="url(#clip35)" clip-rule="evenodd">
<path style=" stroke:none;fill-rule:evenodd;fill:rgb(100%,58.823529%,58.823529%);fill-opacity:1;" d="M 8.0625 20.6875 C 8.128906 20.964844 8.375 20.960938 8.585938 21.183594 C 8.699219 21.304688 8.492188 21.628906 8.246094 21.628906 C 8 21.628906 7.820312 21.3125 7.8125 21.152344 C 7.792969 20.859375 8.003906 20.445312 8.0625 20.6875 Z M 8.0625 20.6875 "/>
</g>
</g>
<path style=" stroke:none;fill-rule:evenodd;fill:rgb(92.156863%,92.156863%,92.156863%);fill-opacity:1;" d="M 17.308594 19 C 17.308594 19.457031 17.292969 20.234375 17.167969 20.445312 C 17.011719 20.699219 16.503906 20.519531 16.300781 20.445312 C 16.125 20.378906 15.882812 20.125 15.882812 20.125 L 13.523438 20.125 C 13.523438 20.125 11.125 22.097656 10.070312 22.492188 C 9.171875 22.828125 7.753906 23.117188 7.195312 22.492188 C 6.738281 21.976562 6.722656 19.75 6.730469 19 C 6.722656 18.25 6.738281 16.023438 7.195312 15.507812 C 7.753906 14.882812 9.171875 15.171875 10.070312 15.507812 C 11.125 15.902344 13.523438 17.875 13.523438 17.875 L 15.882812 17.875 C 15.882812 17.875 16.125 17.621094 16.300781 17.554688 C 16.503906 17.480469 17.011719 17.300781 17.167969 17.554688 C 17.292969 17.765625 17.308594 18.542969 17.308594 19 Z M 15.945312 18.316406 C 16.175781 18.375 16.148438 18.800781 16.136719 19 C 16.125 19.191406 16.066406 19.472656 15.882812 19.519531 C 15.386719 19.640625 13.574219 19.359375 13.164062 19.734375 C 12.953125 19.933594 11.363281 21.335938 10.429688 21.695312 C 9.535156 22.035156 8.117188 22.515625 7.5625 21.882812 C 7.058594 21.300781 7.21875 16.367188 7.757812 15.957031 C 8.367188 15.496094 9.414062 15.878906 10.203125 16.242188 C 11.117188 16.664062 12.425781 17.972656 13.382812 18.316406 C 14.1875 18.605469 15.488281 18.203125 15.945312 18.316406 Z M 15.945312 18.316406 "/>
</g>
</svg>
