<?xml version="1.0" encoding="UTF-8" standalone="no"?>
<!DOCTYPE svg PUBLIC "-//W3C//DTD SVG 1.1//EN" "http://www.w3.org/Graphics/SVG/1.1/DTD/svg11.dtd">
<svg width="100%" height="100%" viewBox="0 0 512 512" version="1.1" xmlns="http://www.w3.org/2000/svg" xmlns:xlink="http://www.w3.org/1999/xlink" xml:space="preserve" xmlns:serif="http://www.serif.com/" style="fill-rule:evenodd;clip-rule:evenodd;stroke-linejoin:round;stroke-miterlimit:2;">
    <g transform="matrix(0.78125,0,0,0.78125,56,56)">
        <circle cx="256" cy="256" r="256" style="fill:rgb(248,248,248);"/>
    </g>
    <g transform="matrix(4.75229e-17,-0.776108,0.776108,1.29077e-16,57.3164,459.705)">
        <g transform="matrix(0.21331,7.37722e-33,6.96658e-17,1.00616,279.59,-1.57708)">
            <rect x="176.164" y="251.983" width="227.836" height="8.034" style="fill:rgb(40,40,40);"/>
        </g>
        <g transform="matrix(0.721905,0,0,1.88889,75.7816,-223.778)">
            <rect x="368" y="245" width="18" height="18" style="fill:rgb(84,94,111);"/>
        </g>
        <g transform="matrix(0.721905,0,0,1.88889,93.2351,-223.778)">
            <rect x="368" y="245" width="18" height="18" style="fill:rgb(84,94,111);"/>
        </g>
        <g transform="matrix(1.94844e-16,3.18204,-2.51059,1.53729e-16,1060.6,-915.112)">
            <path d="M368.038,236.355L383,268.355L353.077,268.355L368.038,236.355Z" style="fill:rgb(40,40,40);"/>
        </g>
        <g transform="matrix(1.30699,-0.422618,-0.185032,-0.275154,-123.9,541.896)">
            <rect x="256" y="71" width="8" height="209" style="fill:rgb(84,94,111);"/>
        </g>
        <g transform="matrix(1.30699,0.422618,-0.185032,0.275154,-123.9,-29.8963)">
            <rect x="256" y="71" width="8" height="209" style="fill:rgb(84,94,111);"/>
        </g>
        <g transform="matrix(1.66288,0,0,1.66288,15.0257,-176.348)">
            <g transform="matrix(0.911566,0,0,0.911566,-95.5247,26.6392)">
                <path d="M181.583,186.34L254.892,239.144L289.09,242.36L289.09,234.608L307.739,238.887L307.739,273.113L289.09,277.392L289.09,269.64L254.892,272.856L181.583,325.66L155.255,318.694L155.255,315.692L147.575,309.809L147.575,202.191L155.255,196.308L155.255,193.306L181.583,186.34Z" style="fill:rgb(40,40,40);"/>
            </g>
            <g transform="matrix(0.911566,0,0,0.911566,-95.5247,26.6392)">
                <path d="M163.489,206.932L179.251,203.061L246.56,246.715L283.818,249.435L283.818,262.565L246.56,265.285L179.251,308.939L163.489,305.068L163.444,302.85L159.175,300.622C159.175,300.622 159.175,211.378 159.175,211.378C159.175,211.378 163.444,209.15 163.444,209.15L163.489,206.932Z" style="fill:rgb(84,94,111);"/>
            </g>
            <g transform="matrix(0.911566,0,0,0.911566,-95.5247,26.6392)">
                <path d="M167.483,301.87L167.452,300.365L163.234,298.162L163.234,213.838L167.452,211.635L167.483,210.13L178.515,207.421C178.515,207.421 219.819,234.452 219.819,234.452L219.819,277.548L178.515,304.579L167.483,301.87Z" style="fill:rgb(239,63,84);"/>
            </g>
            <g transform="matrix(1.84936e-16,1.11197,-0.569185,3.48525e-17,244.924,-23.0596)">
                <ellipse cx="254.556" cy="334.5" rx="33.556" ry="6.5" style="fill:url(#_Linear1);"/>
            </g>
            <g transform="matrix(9.74839e-17,0.586147,-0.569185,3.48525e-17,295.247,110.793)">
                <ellipse cx="254.556" cy="334.5" rx="33.556" ry="6.5" style="fill:url(#_Linear2);"/>
            </g>
        </g>
        <g transform="matrix(1.93558,-0.771708,0.752664,0.907745,-215.143,115.602)">
            <rect x="176.164" y="82" width="25.836" height="169.983" style="fill:rgb(40,40,40);"/>
        </g>
        <g transform="matrix(1.93558,0.771708,0.752664,-0.907745,-215.143,396.398)">
            <rect x="176.164" y="82" width="25.836" height="169.983" style="fill:rgb(40,40,40);"/>
        </g>
        <g transform="matrix(1.059,-0.42222,0.252548,0.304583,-1.02738,107.858)">
            <rect x="176.164" y="82" width="25.836" height="169.983" style="fill:rgb(84,94,111);"/>
        </g>
        <g transform="matrix(1.059,0.42222,0.252548,-0.304583,-1.02738,404.142)">
            <rect x="176.164" y="82" width="25.836" height="169.983" style="fill:rgb(84,94,111);"/>
        </g>
        <g transform="matrix(-0.577838,-0.694171,-0.197368,0.0791311,310.782,191.734)">
            <rect x="176.164" y="82" width="25.836" height="169.983" style="fill:rgb(40,40,40);"/>
        </g>
        <g transform="matrix(-0.577838,0.694171,-0.197368,-0.0791311,310.782,320.266)">
            <rect x="176.164" y="82" width="25.836" height="169.983" style="fill:rgb(40,40,40);"/>
        </g>
        <g transform="matrix(0.700128,-0.279138,0.347831,0.4195,109.847,132.747)">
            <rect x="176.164" y="82" width="25.836" height="169.983" style="fill:rgb(140,148,160);"/>
        </g>
        <g transform="matrix(0.700128,0.279138,0.347831,-0.4195,109.847,379.253)">
            <rect x="176.164" y="82" width="25.836" height="169.983" style="fill:rgb(140,148,160);"/>
        </g>
        <g transform="matrix(1.08718,-0.433455,0.026986,0.0325463,74.5792,207.655)">
            <rect x="176.164" y="82" width="25.836" height="169.983" style="fill:rgb(40,40,40);"/>
        </g>
        <g transform="matrix(1.08718,0.433455,0.026986,-0.0325463,74.5792,304.345)">
            <rect x="176.164" y="82" width="25.836" height="169.983" style="fill:rgb(40,40,40);"/>
        </g>
        <g transform="matrix(-1.02385e-17,-0.739358,0.739358,4.52726e-17,-42.7756,350.268)">
            <path d="M176,242C176,234.273 169.727,228 162,228L93,228C85.273,228 79,234.273 79,242L79,270C79,277.727 85.273,284 93,284L162,284C169.727,284 176,277.727 176,270L176,242Z" style="fill:rgb(40,40,40);"/>
            <clipPath id="_clip3">
                <path d="M176,242C176,234.273 169.727,228 162,228L93,228C85.273,228 79,234.273 79,242L79,270C79,277.727 85.273,284 93,284L162,284C169.727,284 176,277.727 176,270L176,242Z"/>
            </clipPath>
            <g clip-path="url(#_clip3)">
                <g transform="matrix(-1,-1.22465e-16,1.22465e-16,-1,265.251,517.484)">
                    <text x="94px" y="277px" style="font-family:'Consolas-Bold', 'Consolas', monospace;font-weight:700;font-size:53.05px;fill:rgb(233,233,233);">&lt;/&gt;</text>
                </g>
            </g>
        </g>
    </g>
    <defs>
        <linearGradient id="_Linear1" x1="0" y1="0" x2="1" y2="0" gradientUnits="userSpaceOnUse" gradientTransform="matrix(-8.05662e-07,322,-164.822,-1.57396e-06,254.556,238.963)"><stop offset="0" style="stop-color:rgb(216,4,119);stop-opacity:1"/><stop offset="1" style="stop-color:rgb(125,0,19);stop-opacity:1"/></linearGradient>
        <linearGradient id="_Linear2" x1="0" y1="0" x2="1" y2="0" gradientUnits="userSpaceOnUse" gradientTransform="matrix(1.10596e-14,186,-180.617,1.13892e-14,254.556,326.586)"><stop offset="0" style="stop-color:rgb(216,4,83);stop-opacity:1"/><stop offset="1" style="stop-color:rgb(125,0,12);stop-opacity:1"/></linearGradient>
    </defs>
</svg>
